<?xml version="1.0" encoding="UTF-8" standalone="no"?>
<!DOCTYPE svg PUBLIC "-//W3C//DTD SVG 1.1//EN"
 "http://www.w3.org/Graphics/SVG/1.1/DTD/svg11.dtd">
<!-- Generated by graphviz version 3.0.0 (20220226.1711)
 -->
<!-- Title: G Pages: 1 -->
<svg width="1006pt" height="228pt"
 viewBox="0.00 0.00 1006.20 227.75" xmlns="http://www.w3.org/2000/svg" xmlns:xlink="http://www.w3.org/1999/xlink">
<g id="graph0" class="graph" transform="scale(1 1) rotate(0) translate(21.6 206.15)">
<title>G</title>
<polygon fill="#111111" stroke="transparent" points="-21.6,21.6 -21.6,-206.15 984.6,-206.15 984.6,21.6 -21.6,21.6"/>
<!-- ../../api/axiosCommon.ts -->
<g id="node1" class="node">
<title>../../api/axiosCommon.ts</title>
<path fill="none" stroke="#c6c5fe" d="M643.33,-146C643.33,-146 490.67,-146 490.67,-146 486.83,-146 483,-142.17 483,-138.33 483,-138.33 483,-130.67 483,-130.67 483,-126.83 486.83,-123 490.67,-123 490.67,-123 643.33,-123 643.33,-123 647.17,-123 651,-126.83 651,-130.67 651,-130.67 651,-138.33 651,-138.33 651,-142.17 647.17,-146 643.33,-146"/>
<text text-anchor="middle" x="567" y="-130.8" font-family="Arial" font-size="14.00" fill="#c6c5fe">../../api/axiosCommon.ts</text>
</g>
<!-- ../../common/interface/api.interface.ts -->
<g id="node2" class="node">
<title>../../common/interface/api.interface.ts</title>
<path fill="none" stroke="#cfffac" d="M955.33,-166C955.33,-166 721.67,-166 721.67,-166 717.83,-166 714,-162.17 714,-158.33 714,-158.33 714,-150.67 714,-150.67 714,-146.83 717.83,-143 721.67,-143 721.67,-143 955.33,-143 955.33,-143 959.17,-143 963,-146.83 963,-150.67 963,-150.67 963,-158.33 963,-158.33 963,-162.17 959.17,-166 955.33,-166"/>
<text text-anchor="middle" x="838.5" y="-150.8" font-family="Arial" font-size="14.00" fill="#cfffac">../../common/interface/api.interface.ts</text>
</g>
<!-- ../../api/axiosCommon.ts&#45;&gt;../../common/interface/api.interface.ts -->
<g id="edge1" class="edge">
<title>../../api/axiosCommon.ts&#45;&gt;../../common/interface/api.interface.ts</title>
<path fill="none" stroke="#757575" d="M651.06,-140.66C667.61,-141.89 685.38,-143.21 703.15,-144.53"/>
<polygon fill="#757575" stroke="#757575" points="703.36,-148.06 713.6,-145.3 703.88,-141.07 703.36,-148.06"/>
</g>
<!-- ../../api/userApi.ts -->
<g id="node3" class="node">
<title>../../api/userApi.ts</title>
<path fill="none" stroke="#c6c5fe" d="M318.83,-145C318.83,-145 209.17,-145 209.17,-145 205.33,-145 201.5,-141.17 201.5,-137.33 201.5,-137.33 201.5,-129.67 201.5,-129.67 201.5,-125.83 205.33,-122 209.17,-122 209.17,-122 318.83,-122 318.83,-122 322.67,-122 326.5,-125.83 326.5,-129.67 326.5,-129.67 326.5,-137.33 326.5,-137.33 326.5,-141.17 322.67,-145 318.83,-145"/>
<text text-anchor="middle" x="264" y="-129.8" font-family="Arial" font-size="14.00" fill="#c6c5fe">../../api/userApi.ts</text>
</g>
<!-- ../../api/userApi.ts&#45;&gt;../../api/axiosCommon.ts -->
<g id="edge2" class="edge">
<title>../../api/userApi.ts&#45;&gt;../../api/axiosCommon.ts</title>
<path fill="none" stroke="#757575" d="M326.64,-133.7C368.71,-133.84 425.21,-134.03 472.76,-134.19"/>
<polygon fill="#757575" stroke="#757575" points="472.75,-137.69 482.76,-134.22 472.77,-130.69 472.75,-137.69"/>
</g>
<!-- ../../common/model/user.ts -->
<g id="node4" class="node">
<title>../../common/model/user.ts</title>
<path fill="none" stroke="#cfffac" d="M651.83,-105C651.83,-105 482.17,-105 482.17,-105 478.33,-105 474.5,-101.17 474.5,-97.33 474.5,-97.33 474.5,-89.67 474.5,-89.67 474.5,-85.83 478.33,-82 482.17,-82 482.17,-82 651.83,-82 651.83,-82 655.67,-82 659.5,-85.83 659.5,-89.67 659.5,-89.67 659.5,-97.33 659.5,-97.33 659.5,-101.17 655.67,-105 651.83,-105"/>
<text text-anchor="middle" x="567" y="-89.8" font-family="Arial" font-size="14.00" fill="#cfffac">../../common/model/user.ts</text>
</g>
<!-- ../../api/userApi.ts&#45;&gt;../../common/model/user.ts -->
<g id="edge3" class="edge">
<title>../../api/userApi.ts&#45;&gt;../../common/model/user.ts</title>
<path fill="none" stroke="#757575" d="M326.64,-125.31C367.66,-119.86 422.4,-112.58 469.18,-106.37"/>
<polygon fill="#757575" stroke="#757575" points="469.89,-109.8 479.34,-105.02 468.97,-102.86 469.89,-109.8"/>
</g>
<!-- ../../common/HOC/routerProtectionWrapper.tsx -->
<g id="node5" class="node">
<title>../../common/HOC/routerProtectionWrapper.tsx</title>
<path fill="none" stroke="#c6c5fe" d="M412.33,-64C412.33,-64 115.67,-64 115.67,-64 111.83,-64 108,-60.17 108,-56.33 108,-56.33 108,-48.67 108,-48.67 108,-44.83 111.83,-41 115.67,-41 115.67,-41 412.33,-41 412.33,-41 416.17,-41 420,-44.83 420,-48.67 420,-48.67 420,-56.33 420,-56.33 420,-60.17 416.17,-64 412.33,-64"/>
<text text-anchor="middle" x="264" y="-48.8" font-family="Arial" font-size="14.00" fill="#c6c5fe">../../common/HOC/routerProtectionWrapper.tsx</text>
</g>
<!-- ../../common/constants/routers.ts -->
<g id="node6" class="node">
<title>../../common/constants/routers.ts</title>
<path fill="none" stroke="#cfffac" d="M670.33,-64C670.33,-64 463.67,-64 463.67,-64 459.83,-64 456,-60.17 456,-56.33 456,-56.33 456,-48.67 456,-48.67 456,-44.83 459.83,-41 463.67,-41 463.67,-41 670.33,-41 670.33,-41 674.17,-41 678,-44.83 678,-48.67 678,-48.67 678,-56.33 678,-56.33 678,-60.17 674.17,-64 670.33,-64"/>
<text text-anchor="middle" x="567" y="-48.8" font-family="Arial" font-size="14.00" fill="#cfffac">../../common/constants/routers.ts</text>
</g>
<!-- ../../common/HOC/routerProtectionWrapper.tsx&#45;&gt;../../common/constants/routers.ts -->
<g id="edge4" class="edge">
<title>../../common/HOC/routerProtectionWrapper.tsx&#45;&gt;../../common/constants/routers.ts</title>
<path fill="none" stroke="#757575" d="M420.35,-52.5C428.83,-52.5 437.29,-52.5 445.63,-52.5"/>
<polygon fill="#757575" stroke="#757575" points="445.72,-56 455.72,-52.5 445.72,-49 445.72,-56"/>
</g>
<!-- ../../common/interface/auth.dto.ts -->
<g id="node7" class="node">
<title>../../common/interface/auth.dto.ts</title>
<path fill="none" stroke="#cfffac" d="M670.33,-23C670.33,-23 463.67,-23 463.67,-23 459.83,-23 456,-19.17 456,-15.33 456,-15.33 456,-7.67 456,-7.67 456,-3.83 459.83,0 463.67,0 463.67,0 670.33,0 670.33,0 674.17,0 678,-3.83 678,-7.67 678,-7.67 678,-15.33 678,-15.33 678,-19.17 674.17,-23 670.33,-23"/>
<text text-anchor="middle" x="567" y="-7.8" font-family="Arial" font-size="14.00" fill="#cfffac">../../common/interface/auth.dto.ts</text>
</g>
<!-- ../../common/HOC/routerProtectionWrapper.tsx&#45;&gt;../../common/interface/auth.dto.ts -->
<g id="edge5" class="edge">
<title>../../common/HOC/routerProtectionWrapper.tsx&#45;&gt;../../common/interface/auth.dto.ts</title>
<path fill="none" stroke="#757575" d="M349.65,-40.97C387.48,-35.82 432.22,-29.72 471.17,-24.42"/>
<polygon fill="#757575" stroke="#757575" points="472.03,-27.83 481.47,-23.01 471.09,-20.9 472.03,-27.83"/>
</g>
<!-- index.tsx -->
<g id="node8" class="node">
<title>index.tsx</title>
<path fill="none" stroke="#c6c5fe" d="M64.33,-125C64.33,-125 7.67,-125 7.67,-125 3.83,-125 0,-121.17 0,-117.33 0,-117.33 0,-109.67 0,-109.67 0,-105.83 3.83,-102 7.67,-102 7.67,-102 64.33,-102 64.33,-102 68.17,-102 72,-105.83 72,-109.67 72,-109.67 72,-117.33 72,-117.33 72,-121.17 68.17,-125 64.33,-125"/>
<text text-anchor="middle" x="36" y="-109.8" font-family="Arial" font-size="14.00" fill="#c6c5fe">index.tsx</text>
</g>
<!-- index.tsx&#45;&gt;../../common/interface/api.interface.ts -->
<g id="edge8" class="edge">
<title>index.tsx&#45;&gt;../../common/interface/api.interface.ts</title>
<path fill="none" stroke="#757575" d="M51.75,-125.12C65.44,-135.12 86.83,-148.8 108,-154.5 352.6,-220.43 424.67,-156.29 678,-155.5 686.36,-155.47 694.97,-155.44 703.64,-155.4"/>
<polygon fill="#757575" stroke="#757575" points="703.87,-158.9 713.85,-155.35 703.84,-151.9 703.87,-158.9"/>
</g>
<!-- index.tsx&#45;&gt;../../api/userApi.ts -->
<g id="edge6" class="edge">
<title>index.tsx&#45;&gt;../../api/userApi.ts</title>
<path fill="none" stroke="#757575" d="M72.31,-116.62C103.95,-119.42 151.33,-123.62 190.94,-127.12"/>
<polygon fill="#757575" stroke="#757575" points="190.83,-130.63 201.1,-128.02 191.44,-123.65 190.83,-130.63"/>
</g>
<!-- index.tsx&#45;&gt;../../common/model/user.ts -->
<g id="edge9" class="edge">
<title>index.tsx&#45;&gt;../../common/model/user.ts</title>
<path fill="none" stroke="#757575" d="M72.12,-112.17C150.88,-109.19 344.1,-101.89 464.18,-97.35"/>
<polygon fill="#757575" stroke="#757575" points="464.63,-100.84 474.49,-96.96 464.36,-93.84 464.63,-100.84"/>
</g>
<!-- index.tsx&#45;&gt;../../common/HOC/routerProtectionWrapper.tsx -->
<g id="edge7" class="edge">
<title>index.tsx&#45;&gt;../../common/HOC/routerProtectionWrapper.tsx</title>
<path fill="none" stroke="#757575" d="M57.2,-101.99C71.09,-94.54 90.17,-85.2 108,-79.5 125.23,-73.99 143.92,-69.52 162.16,-65.93"/>
<polygon fill="#757575" stroke="#757575" points="163.07,-69.32 172.24,-64.02 161.76,-62.44 163.07,-69.32"/>
</g>
</g>
</svg>
